<?xml version="1.0" encoding="UTF-8"?>
<svg version="1.1" viewBox="0 0 288 288" xmlns="http://www.w3.org/2000/svg">
<g transform="matrix(.9167 0 0 .9167 11.995 11.995)">
<svg width="288" height="288" enable-background="new 0 0 26.676 26.676" viewBox="0 0 26.676 26.676" xmlns="http://www.w3.org/2000/svg">
<path class="color000 svgShape" d="m26.105 21.891c-0.229 0-0.439-0.131-0.529-0.346-0.066-0.156-1.716-3.857-7.885-4.59-1.285-0.156-2.824-0.236-4.693-0.25v4.613c0 0.213-0.115 0.406-0.304 0.508-0.188 0.098-0.413 0.084-0.588-0.033l-11.852-7.978c-0.16-0.107-0.254-0.287-0.254-0.476 0-0.191 0.094-0.365 0.254-0.477l11.857-7.979c0.175-0.121 0.398-0.129 0.588-0.029 0.19 0.102 0.303 0.295 0.303 0.502v4.293c2.578 0.336 13.674 2.33 13.674 11.674 0 0.271-0.191 0.508-0.459 0.562-0.037 6e-3 -0.076 6e-3 -0.112 6e-3z" fill="#adff2f"/>
</svg>
</g>
</svg>